<svg xmlns="http://www.w3.org/2000/svg" width="28" height="18" viewBox="0 0 28 18">
    <g fill="none" fill-rule="nonzero">
        <path fill="#0575B7" d="M1.75 0h24.5C27.216 0 28 .701 28 1.566v14.869c0 .864-.784 1.565-1.75 1.565H1.75C.783 18 0 17.299 0 16.435V1.565C0 .702.784 0 1.75 0z"/>
        <path fill="#931B1D" d="M9.946 3C6.66 3.02 4 5.68 4 8.953c0 3.286 2.68 5.953 5.984 5.953a5.996 5.996 0 0 0 4.634-2.189h-1.225a5.764 5.764 0 0 1-.446-.613h2.114c.129-.205.245-.417.349-.637h-2.812a5.773 5.773 0 0 1-.25-.626h3.312a5.964 5.964 0 0 0 .17-3.163h-3.658c.046-.212.103-.42.17-.625h3.314a5.943 5.943 0 0 0-.258-.638h-2.8c.1-.214.215-.423.343-.625h2.113a5.916 5.916 0 0 0-.465-.637h-1.178c.183-.214.383-.415.6-.6A5.975 5.975 0 0 0 9.984 3h-.038z"/>
        <path fill="#F16622" d="M23.995 8.955c0 3.288-2.677 5.953-5.983 5.954-3.304.001-5.984-2.663-5.985-5.951v-.003C12.026 5.667 14.704 3.001 18.009 3c3.305-.001 5.985 2.664 5.986 5.952v.003z"/>
        <path fill="#F7981D" d="M23.995 9.02c0 3.288-2.677 5.955-5.983 5.955-3.304.001-5.984-2.664-5.985-5.951V9.02c-.001-3.288 2.677-5.954 5.982-5.955 3.305-.001 5.985 2.664 5.986 5.952v.003z"/>
        <path fill="#CB2026" d="M9.946 3.068C6.66 3.088 4 5.748 4 9.02c0 3.286 2.68 5.953 5.984 5.953 1.55 0 2.963-.588 4.026-1.551.219-.198.422-.41.609-.638h-1.226a5.716 5.716 0 0 1-.446-.613h2.114a5.99 5.99 0 0 0 .349-.638h-2.812a5.818 5.818 0 0 1-.25-.625h3.312a5.962 5.962 0 0 0 .17-3.163h-3.658c.046-.212.103-.42.17-.625h3.314a5.95 5.95 0 0 0-.258-.638h-2.8c.1-.214.215-.423.343-.625h2.113a6.026 6.026 0 0 0-.465-.638h-1.178c.183-.213.383-.414.6-.6a5.976 5.976 0 0 0-4.027-1.552h-.038z"/>
        <g fill="#FFF">
            <path d="M12.136 10.536l.08-.538c-.044 0-.108.018-.165.018-.221 0-.246-.117-.232-.204l.18-1.1h.336l.082-.595h-.318l.065-.37h-.637c-.014.013-.376 2.084-.376 2.335 0 .374.21.54.507.538.232-.003.414-.066.478-.084zM12.338 9.51c0 .895.594 1.108 1.1 1.108.468 0 .673-.104.673-.104l.112-.612s-.355.157-.676.157c-.684 0-.564-.508-.564-.508h1.295s.083-.41.083-.578c0-.417-.21-.926-.909-.926-.64 0-1.114.686-1.114 1.462zm1.117-.896c.36 0 .293.402.293.434h-.707c0-.041.067-.434.414-.434zM17.49 10.536l.113-.691s-.312.157-.527.157c-.452 0-.633-.345-.633-.713 0-.748.389-1.16.822-1.16.325 0 .585.181.585.181l.104-.67s-.386-.157-.717-.157c-.736 0-1.452.634-1.452 1.828 0 .79.387 1.312 1.147 1.312.215 0 .557-.087.557-.087zM8.632 8.056c-.437 0-.772.14-.772.14l-.093.546s.277-.112.695-.112c.237 0 .41.027.41.219 0 .116-.02.16-.02.16s-.188-.016-.274-.016c-.551 0-1.13.233-1.13.94 0 .555.38.682.615.682.45 0 .643-.29.653-.29l-.02.242h.56l.25-1.746c0-.74-.649-.765-.874-.765zm.136 1.421c.012.107-.067.607-.45.607-.199 0-.25-.15-.25-.24 0-.173.095-.381.562-.381.108 0 .12.012.138.014zM10.103 10.602c.143 0 .964.037.964-.805 0-.788-.76-.632-.76-.949 0-.157.124-.207.35-.207.09 0 .436.029.436.029l.08-.56s-.223-.05-.587-.05c-.472 0-.95.187-.95.828 0 .726.798.652.798.958 0 .204-.224.221-.395.221-.297 0-.565-.101-.566-.097l-.085.554c.015.005.18.078.715.078zM22.767 7.554l-.138.848s-.24-.329-.615-.329c-.584 0-1.07.7-1.07 1.505 0 .52.26 1.028.79 1.028.382 0 .593-.265.593-.265l-.028.226h.62l.487-3.014-.64.001zm-.296 1.655c0 .334-.167.78-.512.78-.23 0-.337-.19-.337-.491 0-.491.222-.816.501-.816.23 0 .348.157.348.527zM5.182 10.57l.388-2.276.056 2.276h.44l.818-2.276-.362 2.276h.652l.502-3.018H6.668L6.04 9.403l-.033-1.851h-.93l-.51 3.018zM14.998 10.574c.186-1.05.22-1.901.663-1.746.077-.406.152-.563.236-.735 0 0-.04-.008-.123-.008-.284 0-.496.388-.496.388l.056-.356h-.593l-.397 2.457h.654zM18.96 8.056c-.438 0-.772.14-.772.14l-.092.546s.276-.112.694-.112c.237 0 .41.027.41.219 0 .116-.021.16-.021.16s-.187-.016-.274-.016c-.551 0-1.13.233-1.13.94 0 .555.38.682.615.682.45 0 .643-.29.654-.29l-.021.242h.561l.25-1.746c0-.74-.649-.765-.875-.765zm.136 1.421c.012.107-.067.607-.451.607-.198 0-.249-.15-.249-.24 0-.173.095-.381.561-.381.11 0 .12.012.14.014zM20.347 10.574c.185-1.05.22-1.901.663-1.746.077-.406.152-.563.236-.735 0 0-.04-.008-.123-.008-.285 0-.496.388-.496.388l.057-.356h-.594l-.397 2.457h.654z"/>
        </g>
    </g>
</svg>
