<svg xmlns="http://www.w3.org/2000/svg" width="16" height="16" viewBox="0 0 16 16">
    <path fill="#FFF" d="M15.644 13.904l-3.298-3.298c.795-1.147 1.193-2.426 1.193-3.837 0-.916-.178-1.793-.534-2.63-.356-.836-.837-1.557-1.442-2.163C10.957 1.37 10.236.889 9.399.534 8.563.178 7.686 0 6.77 0c-.916 0-1.793.178-2.63.534-.836.355-1.557.836-2.163 1.442C1.37 2.582.889 3.303.534 4.14.178 4.976 0 5.853 0 6.77c0 .916.178 1.792.534 2.63.355.836.836 1.557 1.442 2.162.606.606 1.327 1.087 2.164 1.443.836.356 1.713.534 2.63.534 1.41 0 2.689-.398 3.836-1.193l3.298 3.289c.23.243.519.365.865.365.334 0 .622-.122.866-.365.243-.244.365-.532.365-.866 0-.34-.118-.628-.356-.865zM9.813 9.812c-.843.844-1.858 1.265-3.044 1.265s-2.2-.422-3.043-1.265S2.462 7.955 2.462 6.77c0-1.186.421-2.2 1.264-3.043S5.583 2.462 6.77 2.462c1.186 0 2.2.421 3.044 1.264.843.843 1.264 1.857 1.264 3.043 0 1.186-.421 2.2-1.264 3.043z"/>
</svg>
