<?xml version="1.0" encoding="UTF-8"?>
<svg width="16px" height="16px" viewBox="0 0 16 16" version="1.1" xmlns="http://www.w3.org/2000/svg" xmlns:xlink="http://www.w3.org/1999/xlink">
    <!-- Generator: Sketch 62 (91390) - https://sketch.com -->
    <title>icon-info-light-hover</title>
    <desc>Created with Sketch.</desc>
    <g id="icon-info-light-hover" stroke="none" stroke-width="1" fill="none" fill-rule="evenodd">
        <g id="icon/custom/info/light-solid-hover" fill="#FFFFFF" fill-rule="nonzero">
            <path d="M8,0 C12.418278,0 16,3.581722 16,8 C16,12.418278 12.418278,16 8,16 C3.581722,16 0,12.418278 0,8 C0,3.581722 3.581722,0 8,0 Z M8,1.03225806 C4.15182239,1.03225806 1.03225806,4.15182239 1.03225806,8 C1.03225806,11.8481776 4.15182239,14.9677419 8,14.9677419 C11.8481776,14.9677419 14.9677419,11.8481776 14.9677419,8 C14.9677419,4.15182239 11.8481776,1.03225806 8,1.03225806 Z M8.00469208,6.70967742 C8.14232649,6.70967742 8.26197458,6.75961983 8.36363636,6.85950467 C8.46529814,6.9593895 8.51612903,7.09716168 8.51612903,7.27282121 L8.51612903,7.27282121 L8.51612903,11.307824 C8.51612903,11.4800392 8.46373412,11.6169503 8.35894428,11.7185573 C8.25415445,11.8201643 8.1313783,11.8709677 7.99061584,11.8709677 C7.84985337,11.8709677 7.73020528,11.8218864 7.63167155,11.7237237 C7.53313783,11.625561 7.48387097,11.4869278 7.48387097,11.307824 L7.48387097,11.307824 L7.48387097,7.27282121 C7.48387097,7.09716168 7.53548387,6.9593895 7.63870968,6.85950467 C7.74193548,6.75961983 7.86392962,6.70967742 8.00469208,6.70967742 Z M8.00292149,4.12903226 C8.23664029,4.12903226 8.42361534,4.20071685 8.56384662,4.34408602 C8.70407791,4.4874552 8.77419355,4.67383513 8.77419355,4.90322581 C8.77419355,5.13671275 8.70310408,5.32411674 8.56092514,5.46543779 C8.4187462,5.60675883 8.23079732,5.67741935 7.99707851,5.67741935 C7.76725502,5.67741935 7.5812538,5.60675883 7.43907486,5.46543779 C7.29689592,5.32411674 7.22580645,5.13671275 7.22580645,4.90322581 C7.22580645,4.67383513 7.29689592,4.4874552 7.43907486,4.34408602 C7.5812538,4.20071685 7.76920268,4.12903226 8.00292149,4.12903226 Z" id="icon/custom/info/dark-lines"></path>
        </g>
    </g>
</svg>