<svg xmlns="http://www.w3.org/2000/svg" width="16" height="16" viewBox="0 0 16 16">
    <path fill="#FFF" fill-rule="nonzero" d="M15.614 13.877l-3.291-3.291a6.572 6.572 0 0 0 1.19-3.83c0-.914-.178-1.79-.533-2.624a6.753 6.753 0 0 0-1.44-2.16A6.754 6.754 0 0 0 9.381.532 6.64 6.64 0 0 0 6.756 0c-.915 0-1.79.178-2.624.533a6.753 6.753 0 0 0-2.16 1.44 6.754 6.754 0 0 0-1.44 2.159A6.639 6.639 0 0 0 0 6.756c0 .915.178 1.79.533 2.625a6.753 6.753 0 0 0 1.44 2.16 6.755 6.755 0 0 0 2.159 1.439 6.64 6.64 0 0 0 2.624.533 6.573 6.573 0 0 0 3.83-1.19l3.291 3.281c.23.244.518.365.864.365.333 0 .62-.121.864-.365a1.18 1.18 0 0 0 .364-.863c0-.34-.118-.627-.355-.864zm-5.82-4.083c-.842.841-1.854 1.262-3.038 1.262-1.183 0-2.196-.421-3.037-1.262-.841-.842-1.262-1.854-1.262-3.038 0-1.183.42-2.196 1.262-3.037.841-.841 1.854-1.262 3.037-1.262 1.184 0 2.196.42 3.038 1.262.841.841 1.262 1.854 1.262 3.037 0 1.184-.421 2.196-1.262 3.038z"/>
</svg>
