<?xml version="1.0" encoding="UTF-8"?>
<svg width="16px" height="16px" viewBox="0 0 16 16" version="1.1" xmlns="http://www.w3.org/2000/svg" xmlns:xlink="http://www.w3.org/1999/xlink">
    <!-- Generator: Sketch 62 (91390) - https://sketch.com -->
    <title>icon-info-light-default</title>
    <desc>Created with Sketch.</desc>
    <g id="icon-info-light-default" stroke="none" stroke-width="1" fill="none" fill-rule="evenodd">
        <g id="icon/custom/info/light-solid" fill-rule="nonzero">
            <path d="M8,0 C3.581722,0 0,3.581722 0,8 C0,12.418278 3.581722,16 8,16 C12.418278,16 16,12.418278 16,8 C16,3.581722 12.418278,0 8,0 Z" id="icon/custom/info/dark-lines" fill="#FFFFFF"></path>
            <path d="M7.99622642,5.33333333 C8.29811321,5.33333333 8.5408805,5.24206349 8.7245283,5.05952381 C8.9081761,4.87698413 9,4.63492063 9,4.33333333 C9,4.03703704 8.90943396,3.7962963 8.72830189,3.61111111 C8.54716981,3.42592593 8.30566038,3.33333333 8.00377358,3.33333333 C7.70188679,3.33333333 7.4591195,3.42592593 7.2754717,3.61111111 C7.0918239,3.7962963 7,4.03703704 7,4.33333333 C7,4.63492063 7.0918239,4.87698413 7.2754717,5.05952381 C7.4591195,5.24206349 7.69937107,5.33333333 7.99622642,5.33333333 Z" id="Path" fill="#333232"></path>
            <path d="M7.98787879,12.6666667 C8.16969697,12.6666667 8.32828283,12.6076076 8.46363636,12.4894895 C8.5989899,12.3713714 8.66666667,12.2122122 8.66666667,12.012012 L8.66666667,7.32132132 C8.66666667,7.11711712 8.6010101,6.95695696 8.46969697,6.84084084 C8.33838384,6.72472472 8.18383838,6.66666667 8.00606061,6.66666667 C7.82424242,6.66666667 7.66666667,6.72472472 7.53333333,6.84084084 C7.4,6.95695696 7.33333333,7.11711712 7.33333333,7.32132132 L7.33333333,12.012012 C7.33333333,12.2202202 7.3969697,12.3813814 7.52424242,12.4954955 C7.65151515,12.6096096 7.80606061,12.6666667 7.98787879,12.6666667 Z" id="Path" fill="#333232"></path>
        </g>
    </g>
</svg>