<svg xmlns="http://www.w3.org/2000/svg" width="24" height="24" viewBox="0 0 24 24">
    <path fill="#FFF" d="M12 0c6.627 0 12 5.373 12 12s-5.373 12-12 12S0 18.627 0 12 5.373 0 12 0zm.01 10c-.274 0-.51.087-.71.261-.2.174-.3.415-.3.721v7.036c0 .312.095.554.286.725.191.171.423.257.696.257.273 0 .51-.089.713-.266.203-.177.305-.416.305-.716v-7.036c0-.306-.098-.547-.295-.72-.197-.175-.43-.262-.696-.262zm-.004-5c-.453 0-.817.139-1.093.417-.275.277-.413.639-.413 1.083 0 .452.138.815.413 1.09.276.273.636.41 1.081.41.453 0 .817-.137 1.093-.41.275-.275.413-.638.413-1.09 0-.444-.136-.806-.408-1.083-.271-.278-.634-.417-1.086-.417z"/>
</svg>
