<svg xmlns="http://www.w3.org/2000/svg" width="30" height="30" viewBox="0 0 30 30">
    <path fill="#FFF" d="M15 0c8.284 0 15 6.716 15 15 0 8.284-6.716 15-15 15-8.284 0-15-6.716-15-15C0 6.716 6.716 0 15 0zm-4.578 9.362c-.41-.305-1.001-.277-1.377.083-.408.39-.408 1.024 0 1.414L13.365 15l-4.32 4.14-.087.095c-.318.392-.29.96.087 1.32.376.36.968.388 1.377.083l.098-.083L15 16.263l4.48 4.292.098.083c.375.28.904.28 1.279 0l.098-.083.087-.094c.292-.36.292-.866 0-1.226l-.087-.094-4.32-4.14 4.32-4.142.087-.094c.318-.392.29-.96-.087-1.32l-.098-.083c-.41-.305-1.001-.277-1.377.083L15 13.737l-4.48-4.292z"/>
</svg>
