<svg xmlns="http://www.w3.org/2000/svg" xmlns:xlink="http://www.w3.org/1999/xlink" width="30" height="18" viewBox="0 0 30 18">
    <defs>
        <filter id="prefix__b" width="103.3%" height="105.6%" x="-1.7%" y="-2.8%" filterUnits="objectBoundingBox">
            <feOffset dy="-1" in="SourceAlpha" result="shadowOffsetInner1"/>
            <feComposite in="shadowOffsetInner1" in2="SourceAlpha" k2="-1" k3="1" operator="arithmetic" result="shadowInnerInner1"/>
            <feColorMatrix in="shadowInnerInner1" values="0 0 0 0 0.497960856 0 0 0 0 0.561759458 0 0 0 0 0.570126488 0 0 0 0.287081069 0"/>
        </filter>
        <rect id="prefix__a" width="30" height="18" x="0" y="0" rx="1.5"/>
    </defs>
    <g fill="none" fill-rule="evenodd">
        <use fill="#EFEFEF" xlink:href="#prefix__a"/>
        <use fill="#000" filter="url(#prefix__b)" xlink:href="#prefix__a"/>
        <path fill="#26337A" d="M11.059 12.58L12.212 5.427 14.055 5.427 12.902 12.58 11.059 12.58M19.587 5.603c-.364-.144-.937-.3-1.651-.3-1.822 0-3.105.97-3.116 2.36-.011 1.028.916 1.602 1.614 1.944.719.35.96.574.957.887-.005.48-.573.699-1.103.699-.738 0-1.13-.108-1.736-.375l-.237-.114-.258 1.6c.43.2 1.226.373 2.053.382 1.937 0 3.195-.959 3.21-2.443.007-.815-.484-1.433-1.548-1.944-.644-.331-1.04-.551-1.035-.887 0-.297.334-.615 1.056-.615.603-.01 1.04.13 1.38.275l.165.081.25-1.55M22.041 10.044c.153-.411.735-2 .735-2-.011.02.152-.414.245-.682l.124.617.427 2.065h-1.53zm2.274-4.61h-1.424c-.442 0-.773.127-.966.593l-2.737 6.556h1.936s.315-.882.387-1.076l2.36.004c.056.25.225 1.072.225 1.072h1.71l-1.49-7.148zM9.513 5.433L7.709 10.31l-.194-.992c-.336-1.142-1.382-2.38-2.553-3l1.65 6.256 1.951-.001 2.903-7.14H9.513"/>
        <path fill="#EC982D" d="M6.034 5.428H3.062l-.025.149c2.313.592 3.843 2.022 4.478 3.741L6.87 6.032c-.111-.453-.435-.588-.835-.604"/>
    </g>
</svg>
