<svg xmlns="http://www.w3.org/2000/svg" width="20" height="20" viewBox="0 0 20 20">
    <g fill="none">
        <path fill="#FFF" fill-opacity="0" d="M0 0H20V20H0z"/>
        <path fill="#57565B" d="M2.58 2.768l3.244-.749c.352-.081.714.103.857.434L8.18 5.946c.13.305.043.664-.216.873l-1.89 1.547c1.123 2.392 3.085 4.382 5.527 5.527l1.547-1.89c.212-.26.568-.347.873-.216l3.493 1.498c.334.146.518.508.437.86l-.748 3.244c-.078.337-.378.58-.73.58C8.484 17.97 2 11.497 2 3.497c0-.349.24-.651.58-.73z"/>
    </g>
</svg>
