<svg xmlns="http://www.w3.org/2000/svg" width="30" height="30" viewBox="0 0 30 30">
    <path fill="#FFF" d="M15 0c8.284 0 15 6.716 15 15 0 8.284-6.716 15-15 15-8.284 0-15-6.716-15-15C0 6.716 6.716 0 15 0zm0 1.935C7.785 1.935 1.935 7.785 1.935 15S7.785 28.065 15 28.065 28.065 22.215 28.065 15 22.215 1.935 15 1.935zm-4.578 7.427l.098.083L15 13.737l4.48-4.292c.376-.36.968-.388 1.377-.083l.098.083c.376.36.405.928.087 1.32l-.087.094L16.634 15l4.321 4.14.087.095c.292.36.292.866 0 1.226l-.087.094-.098.083c-.375.28-.904.28-1.28 0l-.097-.083L15 16.263l-4.48 4.292-.098.083c-.41.305-1.001.277-1.377-.083-.376-.36-.405-.928-.087-1.32l.087-.094L13.365 15l-4.32-4.14c-.408-.391-.408-1.024 0-1.415.376-.36.968-.388 1.377-.083z"/>
</svg>
