<svg xmlns="http://www.w3.org/2000/svg" width="24" height="25" viewBox="0 0 24 25">
    <g fill="#ABAAAD">
        <path d="M4 12h16c.552 0 1 .448 1 1v5c0 .552-.448 1-1 1h-1c-.552 0-1-.448-1-1v-1H6v1c0 .552-.448 1-1 1H4c-.552 0-1-.448-1-1v-5c0-.552.448-1 1-1zM16 6.2l3.287.986c.423.127.713.516.713.958V11h-2v-1c0-.552-.448-1-1-1h-3c-.552 0-1 .448-1 1v1h-2v-1c0-.552-.448-1-1-1H7c-.552 0-1 .448-1 1v1H4V8.144c0-.442.29-.83.713-.958L8 6.2c2.61-.783 5.39-.783 8 0z" transform="translate(0 .5)"/>
    </g>
</svg>
