<svg xmlns="http://www.w3.org/2000/svg" width="24" height="24" viewBox="0 0 24 24">
    <g fill="#ABAAAD">
        <g transform="translate(1 1)">
            <circle cx="3" cy="2" r="2"/>
            <circle cx="10" cy="2" r="2"/>
            <path d="M1 5h4c.552 0 1 .448 1 1v7c0 .276-.224.5-.5.5-.285 0-.525.213-.558.497l-.838 7.12c-.06.503-.486.883-.993.883h-.358c-.514 0-.944-.39-.995-.9l-.708-7.102C1.02 13.715.784 13.5.5 13.5c-.276 0-.5-.224-.5-.5V6c0-.552.448-1 1-1zM8 5h4c.552 0 1 .448 1 1v7c0 .276-.224.5-.5.5-.285 0-.525.213-.558.497l-.838 7.12c-.06.503-.486.883-.993.883h-.358c-.514 0-.944-.39-.995-.9l-.708-7.102c-.029-.283-.266-.498-.55-.498-.276 0-.5-.224-.5-.5V6c0-.552.448-1 1-1z"/>
        </g>
        <circle cx="17" cy="8.5" r="1.5"/>
        <circle cx="22" cy="8.5" r="1.5"/>
        <path d="M16 11h2c.552 0 1 .448 1 1v4.667c0 .184-.15.333-.333.333-.19 0-.35.143-.37.331l-.551 4.956c-.045.406-.388.713-.797.713-.406 0-.746-.31-.784-.714l-.467-4.954c-.018-.188-.176-.332-.365-.332-.184 0-.333-.15-.333-.333V12c0-.552.448-1 1-1zM21 11h2c.552 0 1 .448 1 1v4.667c0 .184-.15.333-.333.333-.19 0-.35.143-.37.331l-.551 4.956c-.045.406-.388.713-.797.713-.406 0-.746-.31-.784-.714l-.467-4.954c-.018-.188-.176-.332-.365-.332-.184 0-.333-.15-.333-.333V12c0-.552.448-1 1-1z"/>
    </g>
</svg>
