<svg xmlns="http://www.w3.org/2000/svg" width="20" height="20" viewBox="0 0 20 20">
    <path fill="none" fill-rule="evenodd" stroke="#222" stroke-opacity=".3" stroke-width="2" d="M6.923 1.53c-1.31.478-2.48 1.25-3.425 2.24C1.95 5.386 1 7.58 1 9.994c0 2.487 1.007 4.738 2.636 6.368C5.265 17.993 7.515 19 10 19c2.492 0 4.747-1.014 6.376-2.671 1.014-1.032 1.784-2.312 2.22-3.752-1.306.868-2.873 1.373-4.558 1.373-2.277 0-4.338-.923-5.83-2.416-1.492-1.493-2.415-3.555-2.415-5.832 0-1.522.412-2.948 1.13-4.171z"/>
</svg>
