<svg xmlns="http://www.w3.org/2000/svg" xmlns:xlink="http://www.w3.org/1999/xlink" width="30" height="18" viewBox="0 0 30 18">
    <defs>
        <filter id="prefix__b" width="103.3%" height="105.6%" x="-1.7%" y="-2.8%" filterUnits="objectBoundingBox">
            <feOffset dy="-1" in="SourceAlpha" result="shadowOffsetInner1"/>
            <feComposite in="shadowOffsetInner1" in2="SourceAlpha" k2="-1" k3="1" operator="arithmetic" result="shadowInnerInner1"/>
            <feColorMatrix in="shadowInnerInner1" values="0 0 0 0 0.062745098 0 0 0 0 0.0666666667 0 0 0 0 0.0666666667 0 0 0 0.4 0"/>
        </filter>
        <rect id="prefix__a" width="30" height="18" x="0" y="0" rx="1.5"/>
    </defs>
    <g fill="none" fill-rule="evenodd">
        <use fill="#26337A" xlink:href="#prefix__a"/>
        <use fill="#000" filter="url(#prefix__b)" xlink:href="#prefix__a"/>
        <path fill="#C00" d="M17.298 9.182c0 4.042-3.276 7.318-7.318 7.318s-7.318-3.276-7.318-7.318S5.938 1.864 9.98 1.864s7.318 3.276 7.318 7.318"/>
        <path fill="#F90" d="M19.805 1.864c-1.891 0-3.614.717-4.913 1.894-.264.24-.51.499-.738.775h1.478c.202.246.388.504.558.775h-2.594c-.156.249-.297.507-.422.775h3.438c.117.25.22.51.31.775h-4.058c-.084.252-.156.51-.213.774h4.483c.107.5.164 1.018.164 1.55 0 .812-.132 1.594-.377 2.325h-4.057c.089.265.192.524.31.775h3.438c-.126.267-.266.526-.423.775h-2.593c.169.27.355.529.558.774h1.478c-.228.276-.474.535-.74.775 1.3 1.177 3.022 1.894 4.913 1.894 4.042 0 7.318-3.276 7.318-7.318 0-4.041-3.276-7.318-7.318-7.318"/>
        <path fill="#006" d="M8.271 9.983c-.083-.01-.12-.012-.177-.012-.45 0-.678.154-.678.46 0 .187.111.307.284.307.324 0 .557-.308.571-.755zm.578 1.345h-.658l.015-.312c-.2.247-.469.365-.833.365-.43 0-.726-.337-.726-.825 0-.735.514-1.164 1.395-1.164.09 0 .206.008.324.023.025-.1.031-.142.031-.195 0-.2-.138-.275-.51-.275-.388-.004-.709.093-.84.136l.11-.679c.396-.116.657-.16.95-.16.683 0 1.044.306 1.044.885.001.156-.025.347-.065.598-.069.438-.217 1.375-.237 1.603zM6.315 11.328L5.52 11.328 5.976 8.475 4.959 11.328 4.418 11.328 4.351 8.491 3.873 11.328 3.129 11.328 3.75 7.616 4.893 7.616 4.962 9.694 5.659 7.616 6.929 7.616 6.315 11.328M20.787 9.983c-.083-.01-.12-.012-.177-.012-.45 0-.678.154-.678.46 0 .187.11.307.285.307.323 0 .556-.308.57-.755zm.578 1.345h-.658l.015-.312c-.201.247-.469.365-.833.365-.43 0-.725-.337-.725-.825 0-.735.513-1.164 1.394-1.164.09 0 .206.008.324.023.025-.1.031-.142.031-.195 0-.2-.138-.275-.51-.275-.388-.004-.709.093-.84.136l.11-.679c.396-.116.657-.16.95-.16.683 0 1.044.306 1.043.885.002.156-.024.347-.064.598-.069.438-.217 1.375-.237 1.603zM12.38 11.282c-.218.069-.387.099-.57.099-.407 0-.629-.234-.629-.664-.005-.133.059-.484.11-.804.045-.282.344-2.06.344-2.06h.79l-.093.457h.477l-.107.725h-.48c-.09.574-.222 1.29-.223 1.384 0 .156.083.224.272.224.09 0 .16-.01.214-.029l-.105.668M14.801 11.258c-.271.083-.533.123-.81.123-.884-.002-1.345-.463-1.345-1.347 0-1.032.586-1.792 1.382-1.792.651 0 1.067.425 1.067 1.092 0 .222-.028.438-.097.743h-1.573c-.053.438.227.62.687.62.282 0 .537-.058.82-.19l-.13.751zm-.444-1.79c.005-.063.084-.538-.367-.538-.252 0-.432.191-.505.538h.872zM9.326 9.264c0 .382.185.645.605.843.321.151.371.196.371.333 0 .188-.142.273-.456.273-.237 0-.458-.037-.712-.12l-.11.698c.181.04.342.076.828.09.838 0 1.225-.32 1.225-1.01 0-.414-.162-.658-.56-.84-.333-.154-.371-.188-.371-.329 0-.163.132-.246.388-.246.156 0 .37.016.571.045l.113-.7c-.205-.033-.517-.059-.699-.059-.888 0-1.196.464-1.193 1.022M18.665 8.322c.22 0 .427.057.71.2l.13-.805c-.117-.046-.526-.315-.873-.315-.532 0-.981.265-1.297.7-.461-.153-.651.155-.883.463l-.207.048c.016-.101.03-.202.025-.303h-.73c-.099.934-.276 1.88-.414 2.815l-.036.203h.795c.133-.862.205-1.413.25-1.787l.299-.166c.045-.167.184-.223.465-.216-.037.197-.057.404-.057.619 0 .988.534 1.603 1.389 1.603.22 0 .41-.03.702-.11l.14-.845c-.264.13-.48.19-.675.19-.462 0-.742-.34-.742-.904 0-.818.416-1.39 1.01-1.39M25.392 7.616l-.177 1.073c-.217-.286-.45-.493-.758-.493-.401 0-.766.304-1.005.751-.333-.069-.676-.186-.676-.186v.003c.026-.25.037-.402.034-.454h-.73c-.099.934-.275 1.88-.414 2.815l-.036.203h.795c.107-.696.19-1.275.25-1.734.272-.246.408-.46.682-.446-.122.294-.193.633-.193.98 0 .754.382 1.253.96 1.253.29 0 .514-.101.732-.334l-.038.281h.752l.605-3.712h-.783zm-.994 3.015c-.27 0-.407-.2-.407-.595 0-.594.256-1.014.616-1.014.273 0 .421.208.421.591 0 .599-.26 1.018-.63 1.018z"/>
        <path fill="#FFF" d="M6.543 11.108L5.749 11.108 6.204 8.255 5.188 11.108 4.647 11.108 4.58 8.271 4.101 11.108 3.358 11.108 3.979 7.396 5.121 7.396 5.153 9.694 5.924 7.396 7.158 7.396 6.543 11.108M8.5 9.763c-.083-.01-.12-.012-.177-.012-.45 0-.679.154-.679.46 0 .187.112.307.285.307.324 0 .557-.308.57-.755zm.578 1.345H8.42l.015-.313c-.201.247-.47.365-.833.365-.43 0-.726-.336-.726-.824 0-.736.514-1.164 1.395-1.164.09 0 .206.008.324.024.024-.1.03-.143.03-.197 0-.2-.137-.274-.509-.274-.388-.004-.709.092-.84.136l.11-.68c.395-.115.657-.16.95-.16.683 0 1.044.307 1.043.886.002.155-.024.347-.064.598-.069.437-.217 1.375-.237 1.603zM19.734 7.496l-.13.806c-.284-.143-.49-.2-.71-.2-.593 0-1.01.573-1.01 1.39 0 .564.28.904.742.904.196 0 .412-.06.675-.19l-.14.846c-.292.08-.481.108-.702.108-.855 0-1.388-.615-1.388-1.602 0-1.327.737-2.254 1.79-2.254.347 0 .756.147.873.192M21.015 9.763c-.082-.01-.12-.012-.176-.012-.45 0-.678.154-.678.46 0 .187.11.307.284.307.324 0 .557-.308.57-.755zm.579 1.345h-.658l.014-.313c-.2.247-.468.365-.832.365-.43 0-.726-.336-.726-.824 0-.736.513-1.164 1.395-1.164.09 0 .205.008.323.024.025-.1.032-.143.032-.197 0-.2-.138-.274-.51-.274-.388-.004-.709.092-.84.136l.11-.68c.395-.115.656-.16.95-.16.682 0 1.044.307 1.043.886.002.155-.024.347-.064.598-.069.437-.217 1.375-.237 1.603zM12.609 11.062c-.218.069-.387.098-.571.098-.406 0-.628-.233-.628-.662-.006-.134.059-.485.11-.805.045-.283.344-2.06.344-2.06h.79l-.093.456h.405l-.108.726h-.406c-.092.574-.223 1.29-.225 1.384 0 .156.084.224.273.224.09 0 .16-.01.214-.029l-.105.668M15.03 11.038c-.271.083-.533.123-.81.122-.885 0-1.345-.462-1.345-1.346 0-1.032.586-1.792 1.381-1.792.652 0 1.068.425 1.068 1.093 0 .221-.03.437-.097.742h-1.573c-.053.438.227.62.686.62.283 0 .538-.058.822-.19l-.132.751zm-.444-1.79c.005-.063.084-.539-.367-.539-.252 0-.432.192-.505.54h.872zM9.554 9.044c0 .382.185.645.605.843.322.151.372.196.372.333 0 .188-.142.273-.456.273-.237 0-.458-.037-.712-.119l-.11.697c.181.04.342.075.827.09.839 0 1.226-.32 1.226-1.01 0-.414-.162-.658-.56-.84-.333-.154-.372-.188-.372-.329 0-.163.132-.247.39-.247.155 0 .368.018.57.046l.113-.7c-.206-.033-.517-.06-.7-.06-.888 0-1.195.465-1.193 1.023M25.799 11.108h-.752l.037-.28c-.218.232-.44.332-.732.332-.577 0-.96-.497-.96-1.252 0-1.004.593-1.85 1.293-1.85.308 0 .542.125.759.411l.176-1.073h.784l-.605 3.712zm-1.172-.697c.37 0 .63-.42.63-1.018 0-.383-.148-.592-.421-.592-.36 0-.617.421-.617 1.015 0 .395.137.595.408.595zM22.31 8.09c-.1.934-.277 1.88-.415 2.815l-.036.203h.795c.284-1.846.352-2.206.798-2.161.071-.378.203-.709.302-.876-.333-.07-.519.119-.763.476.02-.154.055-.304.048-.458h-.73M15.77 8.09c-.1.934-.277 1.88-.415 2.815l-.036.203h.795c.284-1.846.352-2.206.797-2.161.072-.378.204-.709.302-.876-.332-.07-.518.119-.761.476.019-.154.054-.304.047-.458h-.73"/>
    </g>
</svg>
