<svg xmlns="http://www.w3.org/2000/svg" width="24" height="24" viewBox="0 0 24 24">
    <g fill="none">
        <path fill="#57565B" d="M12 5c.552 0 1 .448 1 1v5h5c.552 0 1 .448 1 1s-.448 1-1 1h-5v5c0 .552-.448 1-1 1s-1-.448-1-1v-5H6c-.552 0-1-.448-1-1s.448-1 1-1h5V6c0-.552.448-1 1-1z"/>
        <path fill="#333232" fill-opacity=".8" d="M12 0C5.373 0 0 5.373 0 12s5.373 12 12 12 12-5.373 12-12S18.627 0 12 0zm0 1.548c5.772 0 10.452 4.68 10.452 10.452S17.772 22.452 12 22.452 1.548 17.772 1.548 12 6.228 1.548 12 1.548z"/>
    </g>
</svg>
