<svg xmlns="http://www.w3.org/2000/svg" width="24" height="24" viewBox="0 0 24 24">
    <path fill="#FFF" d="M12 0c6.627 0 12 5.373 12 12s-5.373 12-12 12S0 18.627 0 12 5.373 0 12 0zm0 1.548C6.228 1.548 1.548 6.228 1.548 12S6.228 22.452 12 22.452 22.452 17.772 22.452 12 17.772 1.548 12 1.548zM12.01 10c.266 0 .498.087.695.261.197.174.295.415.295.721v7.036c0 .3-.102.54-.305.716-.203.177-.44.266-.713.266-.273 0-.505-.086-.696-.257-.19-.17-.286-.413-.286-.725v-7.036c0-.306.1-.547.3-.72.2-.175.436-.262.71-.262zm-.004-5c.452 0 .815.139 1.086.417.272.277.408.639.408 1.083 0 .452-.138.815-.413 1.09-.276.273-.64.41-1.093.41-.445 0-.805-.137-1.08-.41-.276-.275-.414-.638-.414-1.09 0-.444.138-.806.413-1.083.276-.278.64-.417 1.093-.417z"/>
</svg>
