<svg xmlns="http://www.w3.org/2000/svg" width="20" height="20" viewBox="0 0 20 20">
    <g fill="none">
        <path fill="#FFF" fill-opacity="0" d="M0 0H20V20H0z"/>
        <path fill="#57565B" d="M17.697 7.963c.122-.097.303-.007.303.146V14.5c0 .828-.672 1.5-1.5 1.5h-13c-.828 0-1.5-.672-1.5-1.5V8.113c0-.157.178-.244.303-.147.7.543 1.628 1.234 4.816 3.55.66.48 1.772 1.493 2.881 1.487 1.116.01 2.25-1.025 2.884-1.487 3.188-2.316 4.113-3.01 4.813-3.553zM10 12c.725.012 1.769-.912 2.294-1.294 4.147-3.01 4.462-3.272 5.418-4.022.182-.14.288-.359.288-.59V5.5c0-.828-.672-1.5-1.5-1.5h-13C2.672 4 2 4.672 2 5.5v.594c0 .231.106.447.288.59.956.747 1.271 1.013 5.418 4.022.525.382 1.569 1.306 2.294 1.294z"/>
    </g>
</svg>
