<svg xmlns="http://www.w3.org/2000/svg" width="24" height="24" viewBox="0 0 24 24">
    <g fill="#ABAAAD">
        <circle cx="2.75" cy="4.25" r="1.75"/>
        <circle cx="8.75" cy="4.25" r="1.75"/>
        <path d="M1 7h3.5c.552 0 1 .448 1 1v6.042c0 .253-.205.458-.458.458-.262 0-.483.195-.514.455l-.754 6.166c-.061.502-.487.879-.993.879h-.185c-.513 0-.942-.387-.995-.897l-.637-6.147c-.027-.26-.245-.456-.506-.456-.253 0-.458-.205-.458-.458V8c0-.552.448-1 1-1zM7 7h3.5c.552 0 1 .448 1 1v6.042c0 .253-.205.458-.458.458-.262 0-.483.195-.514.455l-.754 6.166c-.061.502-.487.879-.993.879h-.185c-.513 0-.942-.387-.995-.897l-.637-6.147c-.027-.26-.245-.456-.506-.456-.253 0-.458-.205-.458-.458V8c0-.552.448-1 1-1zM13 7h3.5c.552 0 1 .448 1 1v6.042c0 .253-.205.458-.458.458-.262 0-.483.195-.514.455l-.754 6.166c-.061.502-.487.879-.993.879h-.185c-.513 0-.942-.387-.995-.897l-.637-6.147c-.027-.26-.245-.456-.506-.456-.253 0-.458-.205-.458-.458V8c0-.552.448-1 1-1zM19 7h3.5c.552 0 1 .448 1 1v6.042c0 .253-.205.458-.458.458-.262 0-.483.195-.514.455l-.754 6.166c-.061.502-.487.879-.993.879h-.185c-.513 0-.942-.387-.995-.897l-.637-6.147c-.027-.26-.245-.456-.506-.456-.253 0-.458-.205-.458-.458V8c0-.552.448-1 1-1z"/>
        <circle cx="20.75" cy="4.25" r="1.75"/>
        <circle cx="14.75" cy="4.25" r="1.75"/>
    </g>
</svg>
