<svg xmlns="http://www.w3.org/2000/svg" width="28" height="18" viewBox="0 0 28 18">
    <g fill="none" fill-rule="evenodd">
        <rect width="28" height="18" fill="#FFF" rx="1.5"/>
        <path fill="#26337A" d="M10.059 12.58l1.153-7.153h1.843l-1.153 7.153h-1.843M18.587 5.603a4.556 4.556 0 0 0-1.651-.3c-1.822 0-3.105.97-3.116 2.36-.011 1.028.916 1.602 1.614 1.944.719.35.96.574.957.887-.005.48-.573.699-1.103.699-.738 0-1.13-.108-1.736-.375l-.237-.114-.258 1.6c.43.2 1.226.373 2.053.382 1.937 0 3.195-.959 3.21-2.443.007-.815-.484-1.433-1.548-1.944-.644-.331-1.04-.551-1.035-.887 0-.297.334-.615 1.056-.615.603-.01 1.04.13 1.38.275l.165.081.25-1.55M21.041 10.044c.153-.411.735-2 .735-2-.011.02.152-.414.245-.682l.124.617.427 2.065h-1.53zm2.274-4.61h-1.424c-.442 0-.773.127-.966.593l-2.737 6.556h1.936s.315-.882.387-1.076l2.36.004c.056.25.225 1.072.225 1.072h1.71l-1.49-7.148zM8.513 5.433L6.709 10.31l-.194-.992c-.336-1.142-1.382-2.38-2.553-3l1.65 6.256 1.951-.001 2.903-7.14H8.513"/>
        <path fill="#EC982D" d="M5.034 5.428H2.062l-.025.149c2.313.592 3.843 2.022 4.478 3.741L5.87 6.032c-.111-.453-.435-.588-.835-.604"/>
    </g>
</svg>
