<svg xmlns="http://www.w3.org/2000/svg" width="28" height="18" viewBox="0 0 28 18">
    <g fill="none" fill-rule="nonzero">
        <path fill="#26A6D1" d="M1.749 0h24.48c.965 0 1.748.701 1.748 1.566v14.869c0 .864-.783 1.565-1.748 1.565H1.749C.782 18 0 17.299 0 16.435V1.565C0 .702.783 0 1.749 0z"/>
        <path fill="#FFF" d="M4.763 6L2 12.072h3.307l.41-.968h.938l.41.968h3.64v-.739l.325.74h1.883l.324-.755v.754h7.572l.92-.943.862.943 3.89.008-2.772-3.027L26.48 6h-3.828l-.896.926L20.92 6h-8.237l-.707 1.567L11.253 6h-3.3v.714L7.584 6H4.763zm.64.862h1.612l1.833 4.118V6.862h1.766l1.415 2.953 1.305-2.953h1.757v4.358h-1.07l-.008-3.415-1.559 3.415h-.957L9.93 7.805v3.415h-2.2l-.417-.977H5.06l-.416.976H3.465l1.938-4.357zm10.666 0h4.348l1.33 1.427 1.372-1.427h1.33l-2.02 2.19 2.02 2.165h-1.39l-1.33-1.443-1.38 1.443h-4.28V6.862zM6.187 7.6l-.742 1.74h1.483l-.74-1.74zm10.956.164v.796h2.372v.886h-2.372v.869h2.66l1.237-1.28-1.184-1.271h-2.713z"/>
    </g>
</svg>
